<svg xmlns="http://www.w3.org/2000/svg" width="600" height="400" aria-hidden="false" aria-label="Interactive chart" class="highcharts-root" style="font-family:Helvetica,Arial,sans-serif;font-size:1rem"><defs aria-hidden="true"><clipPath id="a"><path fill="none" d="M0 0H311V292H0z"/></clipPath></defs><rect width="600" height="400" fill="#fff" aria-hidden="true" class="highcharts-background" filter="none" rx="0" ry="0"/><path fill="none" d="M78 63H389V355H78z" aria-hidden="true" class="highcharts-plot-background" filter="none"/><g fill="none" aria-hidden="true" class="highcharts-grid highcharts-xaxis-grid" data-z-index="1"><path d="M81.5 63 81.5 355M208.5 63 208.5 355M335.5 63 335.5 355" class="highcharts-grid-line" data-z-index="1"/></g><g fill="none" stroke="#e6e6e6" aria-hidden="true" class="highcharts-grid highcharts-yaxis-grid" data-z-index="1"><path d="M78 355.5 389 355.5M78 282.5 389 282.5M78 209.5 389 209.5M78 136.5 389 136.5M78 63.5 389 63.5" class="highcharts-grid-line" data-z-index="1"/></g><path fill="none" d="M78 63H389V355H78z" aria-hidden="true" class="highcharts-plot-border" data-z-index="1"/><g fill="none" stroke="#333" aria-hidden="true" class="highcharts-axis highcharts-xaxis" data-z-index="2"><path d="M81.5 355 81.5 365M208.5 355 208.5 365M335.5 355 335.5 365" class="highcharts-tick"/><path d="M 78 355.5 L 389 355.5" class="highcharts-axis-line" data-z-index="7"/></g><g aria-hidden="true" class="highcharts-axis highcharts-yaxis" data-z-index="2"><text x="25.242" y="209" class="highcharts-axis-title" data-z-index="7" style="color:#666;font-size:.8em;fill:#666" text-anchor="middle" transform="rotate(-90 25.242 209)">Number of Employees</text><path fill="none" d="M 78 63 L 78 355" class="highcharts-axis-line" data-z-index="7"/></g><g aria-hidden="false" class="highcharts-series-group" data-z-index="3" filter="none"><g fill="none" stroke-linecap="round" stroke-linejoin="round" aria-hidden="true" class="highcharts-series highcharts-series-0 highcharts-line-series highcharts-color-0" clip-path="url(#a)" data-z-index=".1" transform="translate(78 63)"><path stroke="#2caffe" stroke-width="2" d="M 3.0490196078404 227.85636 L 28.457516339867 220.96224 L 53.866013071894 196.8591 L 79.27450980392 172.53258 L 104.68300653595 128.27122 L 130.09150326797 84.12082 L 155.5 41.56182 L 180.90849673203 50.84596 L 206.31699346405 65.47078 L 231.72549019608 56.27716 L 257.13398692811 66.2694 L 282.54248366013 45.3184 L 307.95098039216 41.52532" class="highcharts-graph" data-z-index="1" filter="none"/><path stroke="rgba(192,192,192,0.0001)" stroke-width="22" d="M 3.0490196078404 227.85636 L 28.457516339867 220.96224 L 53.866013071894 196.8591 L 79.27450980392 172.53258 L 104.68300653595 128.27122 L 130.09150326797 84.12082 L 155.5 41.56182 L 180.90849673203 50.84596 L 206.31699346405 65.47078 L 231.72549019608 56.27716 L 257.13398692811 66.2694 L 282.54248366013 45.3184 L 307.95098039216 41.52532" class="highcharts-tracker-line" data-z-index="2"/></g><g fill="#2caffe" aria-hidden="false" aria-label="Installation &amp; Developers, line 1 of 5 with 13 data points." class="highcharts-markers highcharts-series-0 highcharts-line-series highcharts-color-0 highcharts-tracker" data-z-index=".1" style="outline:0" tabindex="-1"><path d="M 3.5000000000000004 231.85636 A 4 4 0 1 1 3.5001999999999174 231.856359995 Z" aria-label="x, 2010, 43,934. Installation &amp; Developers." class="highcharts-point highcharts-color-0" style="outline:0" tabindex="-1" transform="translate(78 63)"/><path d="M 28.5 224.96224 A 4 4 0 1 1 28.500199999999918 224.962239995 Z" aria-label="x, 2011, 48,656. Installation &amp; Developers." class="highcharts-point highcharts-color-0" style="outline:0" tabindex="-1" transform="translate(78 63)"/><path d="M 53.5 200.8591 A 4 4 0 1 1 53.500199999999914 200.859099995 Z" aria-label="x, 2012, 65,165. Installation &amp; Developers." class="highcharts-point highcharts-color-0" style="outline:0" tabindex="-1" transform="translate(78 63)"/><path d="M 79.5 176.53258 A 4 4 0 1 1 79.50019999999992 176.532579995 Z" aria-label="x, 2013, 81,827. Installation &amp; Developers." class="highcharts-point highcharts-color-0" style="outline:0" tabindex="-1" transform="translate(78 63)"/><path d="M 104.5 132.27122 A 4 4 0 1 1 104.50019999999992 132.271219995 Z" aria-label="x, 2014, 112,143. Installation &amp; Developers." class="highcharts-point highcharts-color-0" style="outline:0" tabindex="-1" transform="translate(78 63)"/><path d="M 130.5 88.12082 A 4 4 0 1 1 130.50019999999992 88.12081999499999 Z" aria-label="x, 2015, 142,383. Installation &amp; Developers." class="highcharts-point highcharts-color-0" style="outline:0" tabindex="-1" transform="translate(78 63)"/><path d="M 155.5 45.56182 A 4 4 0 1 1 155.50019999999992 45.561819995 Z" aria-label="x, 2016, 171,533. Installation &amp; Developers." class="highcharts-point highcharts-color-0" style="outline:0" tabindex="-1" transform="translate(78 63)"/><path d="M 180.5 54.84596 A 4 4 0 1 1 180.50019999999992 54.845959995 Z" aria-label="x, 2017, 165,174. Installation &amp; Developers." class="highcharts-point highcharts-color-0" style="outline:0" tabindex="-1" transform="translate(78 63)"/><path d="M 206.5 69.47078 A 4 4 0 1 1 206.50019999999992 69.470779995 Z" aria-label="x, 2018, 155,157. Installation &amp; Developers." class="highcharts-point highcharts-color-0" style="outline:0" tabindex="-1" transform="translate(78 63)"/><path d="M 231.5 60.27716 A 4 4 0 1 1 231.50019999999992 60.277159995000005 Z" aria-label="x, 2019, 161,454. Installation &amp; Developers." class="highcharts-point highcharts-color-0" style="outline:0" tabindex="-1" transform="translate(78 63)"/><path d="M 257.5 70.2694 A 4 4 0 1 1 257.5001999999999 70.269399995 Z" aria-label="x, 2020, 154,610. Installation &amp; Developers." class="highcharts-point highcharts-color-0" style="outline:0" tabindex="-1" transform="translate(78 63)"/><path d="M 282.5 49.3184 A 4 4 0 1 1 282.5001999999999 49.318399995 Z" aria-label="x, 2021, 168,960. Installation &amp; Developers." class="highcharts-point highcharts-color-0" style="outline:0" tabindex="-1" transform="translate(78 63)"/><path d="M 307.5 45.52532 A 4 4 0 1 1 307.5001999999999 45.525319995000004 Z" aria-label="x, 2022, 171,558. Installation &amp; Developers." class="highcharts-point highcharts-color-0" style="outline:0" tabindex="-1" transform="translate(78 63)"/></g><g fill="none" stroke-linecap="round" stroke-linejoin="round" aria-hidden="true" class="highcharts-series highcharts-series-1 highcharts-line-series highcharts-color-1" clip-path="url(#a)" data-z-index=".1" transform="translate(78 63)"><path stroke="#544fc5" stroke-width="2" d="M 3.0490196078404 255.62264 L 28.457516339867 236.60614 L 53.866013071894 248.57668 L 79.27450980392 248.41754 L 104.68300653595 244.5646 L 130.09150326797 247.78828 L 155.5 236.34334 L 180.90849673203 238.1479 L 206.31699346405 242.76004 L 231.72549019608 242.00522 L 257.13398692811 246.667 L 282.54248366013 243.67546 L 307.95098039216 243.12942" class="highcharts-graph" data-z-index="1" filter="none"/><path stroke="rgba(192,192,192,0.0001)" stroke-width="22" d="M 3.0490196078404 255.62264 L 28.457516339867 236.60614 L 53.866013071894 248.57668 L 79.27450980392 248.41754 L 104.68300653595 244.5646 L 130.09150326797 247.78828 L 155.5 236.34334 L 180.90849673203 238.1479 L 206.31699346405 242.76004 L 231.72549019608 242.00522 L 257.13398692811 246.667 L 282.54248366013 243.67546 L 307.95098039216 243.12942" class="highcharts-tracker-line" data-z-index="2"/></g><g fill="#544fc5" aria-hidden="false" aria-label="Manufacturing, line 2 of 5 with 13 data points." class="highcharts-markers highcharts-series-1 highcharts-line-series highcharts-color-1 highcharts-tracker" data-z-index=".1" style="outline:0" tabindex="-1"><path d="M 3.5 251.62264 L 7.5 255.62264 L 3.5 259.62264 L -0.5 255.62264 Z" aria-label="x, 2010, 24,916. Manufacturing." class="highcharts-point highcharts-color-1" style="outline:0" tabindex="-1" transform="translate(78 63)"/><path d="M 28.5 232.60614 L 32.5 236.60614 L 28.5 240.60614 L 24.5 236.60614 Z" aria-label="x, 2011, 37,941. Manufacturing." class="highcharts-point highcharts-color-1" style="outline:0" tabindex="-1" transform="translate(78 63)"/><path d="M 53.5 244.57668 L 57.5 248.57668 L 53.5 252.57668 L 49.5 248.57668 Z" aria-label="x, 2012, 29,742. Manufacturing." class="highcharts-point highcharts-color-1" style="outline:0" tabindex="-1" transform="translate(78 63)"/><path d="M 79.5 244.41754 L 83.5 248.41754 L 79.5 252.41754 L 75.5 248.41754 Z" aria-label="x, 2013, 29,851. Manufacturing." class="highcharts-point highcharts-color-1" style="outline:0" tabindex="-1" transform="translate(78 63)"/><path d="M 104.5 240.5646 L 108.5 244.5646 L 104.5 248.5646 L 100.5 244.5646 Z" aria-label="x, 2014, 32,490. Manufacturing." class="highcharts-point highcharts-color-1" style="outline:0" tabindex="-1" transform="translate(78 63)"/><path d="M 130.5 243.78828 L 134.5 247.78828 L 130.5 251.78828 L 126.5 247.78828 Z" aria-label="x, 2015, 30,282. Manufacturing." class="highcharts-point highcharts-color-1" style="outline:0" tabindex="-1" transform="translate(78 63)"/><path d="M 155.5 232.34334 L 159.5 236.34334 L 155.5 240.34334 L 151.5 236.34334 Z" aria-label="x, 2016, 38,121. Manufacturing." class="highcharts-point highcharts-color-1" style="outline:0" tabindex="-1" transform="translate(78 63)"/><path d="M 180.5 234.1479 L 184.5 238.1479 L 180.5 242.1479 L 176.5 238.1479 Z" aria-label="x, 2017, 36,885. Manufacturing." class="highcharts-point highcharts-color-1" style="outline:0" tabindex="-1" transform="translate(78 63)"/><path d="M 206.5 238.76004 L 210.5 242.76004 L 206.5 246.76004 L 202.5 242.76004 Z" aria-label="x, 2018, 33,726. Manufacturing." class="highcharts-point highcharts-color-1" style="outline:0" tabindex="-1" transform="translate(78 63)"/><path d="M 231.5 238.00522 L 235.5 242.00522 L 231.5 246.00522 L 227.5 242.00522 Z" aria-label="x, 2019, 34,243. Manufacturing." class="highcharts-point highcharts-color-1" style="outline:0" tabindex="-1" transform="translate(78 63)"/><path d="M 257.5 242.667 L 261.5 246.667 L 257.5 250.667 L 253.5 246.667 Z" aria-label="x, 2020, 31,050. Manufacturing." class="highcharts-point highcharts-color-1" style="outline:0" tabindex="-1" transform="translate(78 63)"/><path d="M 282.5 239.67546 L 286.5 243.67546 L 282.5 247.67546 L 278.5 243.67546 Z" aria-label="x, 2021, 33,099. Manufacturing." class="highcharts-point highcharts-color-1" style="outline:0" tabindex="-1" transform="translate(78 63)"/><path d="M 307.5 239.12942 L 311.5 243.12942 L 307.5 247.12942 L 303.5 243.12942 Z" aria-label="x, 2022, 33,473. Manufacturing." class="highcharts-point highcharts-color-1" style="outline:0" tabindex="-1" transform="translate(78 63)"/></g><g fill="none" stroke-linecap="round" stroke-linejoin="round" aria-hidden="true" class="highcharts-series highcharts-series-2 highcharts-line-series highcharts-color-2" clip-path="url(#a)" data-z-index=".1" transform="translate(78 63)"><path stroke="#00e272" stroke-width="2" d="M 3.0490196078404 274.85376 L 28.457516339867 248.2 L 53.866013071894 268.6327 L 79.27450980392 263.13434 L 104.68300653595 262.5299 L 130.09150326797 256.40958 L 155.5 245.06538 L 180.90849673203 246.86848 L 206.31699346405 249.30522 L 231.72549019608 249.34902 L 257.13398692811 254.53202 L 282.54248366013 249.69212 L 307.95098039216 247.29772" class="highcharts-graph" data-z-index="1" filter="none"/><path stroke="rgba(192,192,192,0.0001)" stroke-width="22" d="M 3.0490196078404 274.85376 L 28.457516339867 248.2 L 53.866013071894 268.6327 L 79.27450980392 263.13434 L 104.68300653595 262.5299 L 130.09150326797 256.40958 L 155.5 245.06538 L 180.90849673203 246.86848 L 206.31699346405 249.30522 L 231.72549019608 249.34902 L 257.13398692811 254.53202 L 282.54248366013 249.69212 L 307.95098039216 247.29772" class="highcharts-tracker-line" data-z-index="2"/></g><g fill="#00e272" aria-hidden="false" aria-label="Sales &amp; Distribution, line 3 of 5 with 13 data points." class="highcharts-markers highcharts-series-2 highcharts-line-series highcharts-color-2 highcharts-tracker" data-z-index=".1" style="outline:0" tabindex="-1"><path d="M -0.5 270.85376 L 7.5 270.85376 L 7.5 278.85376 L -0.5 278.85376 Z" aria-label="x, 2010, 11,744. Sales &amp; Distribution." class="highcharts-point highcharts-color-2" style="outline:0" tabindex="-1" transform="translate(78 63)"/><path d="M 24.5 244.2 L 32.5 244.2 L 32.5 252.2 L 24.5 252.2 Z" aria-label="x, 2011, 30,000. Sales &amp; Distribution." class="highcharts-point highcharts-color-2" style="outline:0" tabindex="-1" transform="translate(78 63)"/><path d="M 49.5 264.6327 L 57.5 264.6327 L 57.5 272.6327 L 49.5 272.6327 Z" aria-label="x, 2012, 16,005. Sales &amp; Distribution." class="highcharts-point highcharts-color-2" style="outline:0" tabindex="-1" transform="translate(78 63)"/><path d="M 75.5 259.13434 L 83.5 259.13434 L 83.5 267.13434 L 75.5 267.13434 Z" aria-label="x, 2013, 19,771. Sales &amp; Distribution." class="highcharts-point highcharts-color-2" style="outline:0" tabindex="-1" transform="translate(78 63)"/><path d="M 100.5 258.5299 L 108.5 258.5299 L 108.5 266.5299 L 100.5 266.5299 Z" aria-label="x, 2014, 20,185. Sales &amp; Distribution." class="highcharts-point highcharts-color-2" style="outline:0" tabindex="-1" transform="translate(78 63)"/><path d="M 126.5 252.40958 L 134.5 252.40958 L 134.5 260.40958 L 126.5 260.40958 Z" aria-label="x, 2015, 24,377. Sales &amp; Distribution." class="highcharts-point highcharts-color-2" style="outline:0" tabindex="-1" transform="translate(78 63)"/><path d="M 151.5 241.06538 L 159.5 241.06538 L 159.5 249.06538 L 151.5 249.06538 Z" aria-label="x, 2016, 32,147. Sales &amp; Distribution." class="highcharts-point highcharts-color-2" style="outline:0" tabindex="-1" transform="translate(78 63)"/><path d="M 176.5 242.86848 L 184.5 242.86848 L 184.5 250.86848 L 176.5 250.86848 Z" aria-label="x, 2017, 30,912. Sales &amp; Distribution." class="highcharts-point highcharts-color-2" style="outline:0" tabindex="-1" transform="translate(78 63)"/><path d="M 202.5 245.30522 L 210.5 245.30522 L 210.5 253.30522 L 202.5 253.30522 Z" aria-label="x, 2018, 29,243. Sales &amp; Distribution." class="highcharts-point highcharts-color-2" style="outline:0" tabindex="-1" transform="translate(78 63)"/><path d="M 227.5 245.34902 L 235.5 245.34902 L 235.5 253.34902 L 227.5 253.34902 Z" aria-label="x, 2019, 29,213. Sales &amp; Distribution." class="highcharts-point highcharts-color-2" style="outline:0" tabindex="-1" transform="translate(78 63)"/><path d="M 253.5 250.53202 L 261.5 250.53202 L 261.5 258.53202 L 253.5 258.53202 Z" aria-label="x, 2020, 25,663. Sales &amp; Distribution." class="highcharts-point highcharts-color-2" style="outline:0" tabindex="-1" transform="translate(78 63)"/><path d="M 278.5 245.69212 L 286.5 245.69212 L 286.5 253.69212 L 278.5 253.69212 Z" aria-label="x, 2021, 28,978. Sales &amp; Distribution." class="highcharts-point highcharts-color-2" style="outline:0" tabindex="-1" transform="translate(78 63)"/><path d="M 303.5 243.29772 L 311.5 243.29772 L 311.5 251.29772 L 303.5 251.29772 Z" aria-label="x, 2022, 30,618. Sales &amp; Distribution." class="highcharts-point highcharts-color-2" style="outline:0" tabindex="-1" transform="translate(78 63)"/></g><g fill="none" stroke-linecap="round" stroke-linejoin="round" aria-hidden="true" class="highcharts-series highcharts-series-3 highcharts-line-series highcharts-color-3" clip-path="url(#a)" data-z-index=".1" transform="translate(78 63)"><path stroke="#fe6a35" stroke-width="2" d="M 206.31699346405 275.70056 L 231.72549019608 275.62172 L 257.13398692811 277.28758 L 282.54248366013 273.7062 L 307.95098039216 267.7859" class="highcharts-graph" data-z-index="1" filter="none"/><path stroke="rgba(192,192,192,0.0001)" stroke-width="22" d="M 206.31699346405 275.70056 L 231.72549019608 275.62172 L 257.13398692811 277.28758 L 282.54248366013 273.7062 L 307.95098039216 267.7859" class="highcharts-tracker-line" data-z-index="2"/></g><g fill="#fe6a35" aria-hidden="false" aria-label="Operations &amp; Maintenance, line 4 of 5 with 13 data points." class="highcharts-markers highcharts-series-3 highcharts-line-series highcharts-color-3 highcharts-tracker" data-z-index=".1" style="outline:0" tabindex="-1"><path d="M 206.5 271.70056 L 210.5 279.70056 L 202.5 279.70056 Z" aria-label="x, 2018, 11,164. Operations &amp; Maintenance." class="highcharts-point highcharts-color-3" style="outline:0" tabindex="-1" transform="translate(78 63)"/><path d="M 231.5 271.62172 L 235.5 279.62172 L 227.5 279.62172 Z" aria-label="x, 2019, 11,218. Operations &amp; Maintenance." class="highcharts-point highcharts-color-3" style="outline:0" tabindex="-1" transform="translate(78 63)"/><path d="M 257.5 273.28758 L 261.5 281.28758 L 253.5 281.28758 Z" aria-label="x, 2020, 10,077. Operations &amp; Maintenance." class="highcharts-point highcharts-color-3" style="outline:0" tabindex="-1" transform="translate(78 63)"/><path d="M 282.5 269.7062 L 286.5 277.7062 L 278.5 277.7062 Z" aria-label="x, 2021, 12,530. Operations &amp; Maintenance." class="highcharts-point highcharts-color-3" style="outline:0" tabindex="-1" transform="translate(78 63)"/><path d="M 307.5 263.7859 L 311.5 271.7859 L 303.5 271.7859 Z" aria-label="x, 2022, 16,585. Operations &amp; Maintenance." class="highcharts-point highcharts-color-3" style="outline:0" tabindex="-1" transform="translate(78 63)"/></g><g fill="none" stroke-linecap="round" stroke-linejoin="round" aria-hidden="true" class="highcharts-series highcharts-series-4 highcharts-line-series highcharts-color-4" clip-path="url(#a)" data-z-index=".1" transform="translate(78 63)"><path stroke="#6b8abc" stroke-width="2" d="M 3.0490196078404 260.01432 L 28.457516339867 283.89992 L 53.866013071894 280.1667 L 79.27450980392 275.57792 L 104.68300653595 278.87606 L 130.09150326797 274.74864 L 155.5 265.31996 L 180.90849673203 266.742 L 206.31699346405 272.94262 L 231.72549019608 274.61724 L 257.13398692811 277.29342 L 282.54248366013 275.25234 L 307.95098039216 274.99392" class="highcharts-graph" data-z-index="1" filter="none"/><path stroke="rgba(192,192,192,0.0001)" stroke-width="22" d="M 3.0490196078404 260.01432 L 28.457516339867 283.89992 L 53.866013071894 280.1667 L 79.27450980392 275.57792 L 104.68300653595 278.87606 L 130.09150326797 274.74864 L 155.5 265.31996 L 180.90849673203 266.742 L 206.31699346405 272.94262 L 231.72549019608 274.61724 L 257.13398692811 277.29342 L 282.54248366013 275.25234 L 307.95098039216 274.99392" class="highcharts-tracker-line" data-z-index="2"/></g><g fill="#6b8abc" aria-hidden="false" aria-label="Other, line 5 of 5 with 13 data points." class="highcharts-markers highcharts-series-4 highcharts-line-series highcharts-color-4 highcharts-tracker" data-z-index=".1" style="outline:0" tabindex="-1"><path d="M -0.5 256.01432 L 7.5 256.01432 L 3.5 264.01432 Z" aria-label="x, 2010, 21,908. Other." class="highcharts-point highcharts-color-4" style="outline:0" tabindex="-1" transform="translate(78 63)"/><path d="M 24.5 279.89992 L 32.5 279.89992 L 28.5 287.89992 Z" aria-label="x, 2011, 5,548. Other." class="highcharts-point highcharts-color-4" style="outline:0" tabindex="-1" transform="translate(78 63)"/><path d="M 49.5 276.1667 L 57.5 276.1667 L 53.5 284.1667 Z" aria-label="x, 2012, 8,105. Other." class="highcharts-point highcharts-color-4" style="outline:0" tabindex="-1" transform="translate(78 63)"/><path d="M 75.5 271.57792 L 83.5 271.57792 L 79.5 279.57792 Z" aria-label="x, 2013, 11,248. Other." class="highcharts-point highcharts-color-4" style="outline:0" tabindex="-1" transform="translate(78 63)"/><path d="M 100.5 274.87606 L 108.5 274.87606 L 104.5 282.87606 Z" aria-label="x, 2014, 8,989. Other." class="highcharts-point highcharts-color-4" style="outline:0" tabindex="-1" transform="translate(78 63)"/><path d="M 126.5 270.74864 L 134.5 270.74864 L 130.5 278.74864 Z" aria-label="x, 2015, 11,816. Other." class="highcharts-point highcharts-color-4" style="outline:0" tabindex="-1" transform="translate(78 63)"/><path d="M 151.5 261.31996 L 159.5 261.31996 L 155.5 269.31996 Z" aria-label="x, 2016, 18,274. Other." class="highcharts-point highcharts-color-4" style="outline:0" tabindex="-1" transform="translate(78 63)"/><path d="M 176.5 262.742 L 184.5 262.742 L 180.5 270.742 Z" aria-label="x, 2017, 17,300. Other." class="highcharts-point highcharts-color-4" style="outline:0" tabindex="-1" transform="translate(78 63)"/><path d="M 202.5 268.94262 L 210.5 268.94262 L 206.5 276.94262 Z" aria-label="x, 2018, 13,053. Other." class="highcharts-point highcharts-color-4" style="outline:0" tabindex="-1" transform="translate(78 63)"/><path d="M 227.5 270.61724 L 235.5 270.61724 L 231.5 278.61724 Z" aria-label="x, 2019, 11,906. Other." class="highcharts-point highcharts-color-4" style="outline:0" tabindex="-1" transform="translate(78 63)"/><path d="M 253.5 273.29342 L 261.5 273.29342 L 257.5 281.29342 Z" aria-label="x, 2020, 10,073. Other." class="highcharts-point highcharts-color-4" style="outline:0" tabindex="-1" transform="translate(78 63)"/><path d="M 278.5 271.25234 L 286.5 271.25234 L 282.5 279.25234 Z" aria-label="x, 2021, 11,471. Other." class="highcharts-point highcharts-color-4" style="outline:0" tabindex="-1" transform="translate(78 63)"/><path d="M 303.5 270.99392 L 311.5 270.99392 L 307.5 278.99392 Z" aria-label="x, 2022, 11,648. Other." class="highcharts-point highcharts-color-4" style="outline:0" tabindex="-1" transform="translate(78 63)"/></g></g><g aria-hidden="true" data-z-index="3"><text y="12" class="highcharts-label highcharts-series-label highcharts-series-label-0 highcharts-color-0" data-z-index="1" style="color:#2caffe;font-size:.8em;font-weight:700;fill:#2caffe" transform="translate(194 180)">Installation &amp; Developers</text></g><g aria-hidden="true" data-z-index="3"><text y="12" class="highcharts-label highcharts-series-label highcharts-series-label-1 highcharts-color-1" data-z-index="1" style="color:#544fc5;font-size:.8em;font-weight:700;fill:#544fc5" transform="translate(109 282)">Manufacturing</text></g><g aria-hidden="true" data-z-index="3"><text y="12" class="highcharts-label highcharts-series-label highcharts-series-label-4 highcharts-color-4" data-z-index="1" style="color:#6b8abc;font-size:.8em;font-weight:700;fill:#6b8abc" transform="translate(324 320)">Other</text></g><text x="10" y="25" aria-hidden="true" class="highcharts-title" data-z-index="4" style="font-size:1.2em;color:#333;font-weight:700;fill:#333">U.S Solar Employment Growth</text><text x="10" y="47" aria-hidden="true" class="highcharts-subtitle" data-z-index="4" style="color:#666;font-size:.8em;fill:#666">By Job Category. Source: <a target="_blank"><tspan>IREC</tspan></a>.</text><g aria-hidden="true" class="highcharts-legend highcharts-no-tooltip" data-z-index="7" transform="translate(401 145)"><rect width="189" height="106" fill="none" class="highcharts-legend-box" filter="none" rx="0" ry="0"/><g data-z-index="1"><g class="highcharts-legend-item highcharts-line-series highcharts-color-0 highcharts-series-0" data-z-index="1"><path fill="none" stroke="#2caffe" stroke-linecap="round" stroke-width="2" d="M 1 13 L 15 13" class="highcharts-graph" transform="translate(8 3)"/><path fill="#2caffe" d="M 8 17 A 4 4 0 1 1 8.000199999999918 16.999999995 Z" class="highcharts-point" transform="translate(8 3)"/><text x="21" y="17" data-z-index="2" style="color:#333;cursor:pointer;font-size:.8em;text-decoration:none;fill:#333" transform="translate(8 3)">Installation &amp; Developers</text></g><g class="highcharts-legend-item highcharts-line-series highcharts-color-1 highcharts-series-1" data-z-index="1"><path fill="none" stroke="#544fc5" stroke-linecap="round" stroke-width="2" d="M 1 13 L 15 13" class="highcharts-graph" transform="translate(8 22)"/><path fill="#544fc5" d="M 8 9 L 12 13 L 8 17 L 4 13 Z" class="highcharts-point" transform="translate(8 22)"/><text x="21" y="17" data-z-index="2" style="color:#333;cursor:pointer;font-size:.8em;text-decoration:none;fill:#333" transform="translate(8 22)">Manufacturing</text></g><g class="highcharts-legend-item highcharts-line-series highcharts-color-2 highcharts-series-2" data-z-index="1"><path fill="none" stroke="#00e272" stroke-linecap="round" stroke-width="2" d="M 1 13 L 15 13" class="highcharts-graph" transform="translate(8 41)"/><path fill="#00e272" d="M 4 9 L 12 9 L 12 17 L 4 17 Z" class="highcharts-point" transform="translate(8 41)"/><text x="21" y="17" data-z-index="2" style="color:#333;cursor:pointer;font-size:.8em;text-decoration:none;fill:#333" transform="translate(8 41)">Sales &amp; Distribution</text></g><g class="highcharts-legend-item highcharts-line-series highcharts-color-3 highcharts-series-3" data-z-index="1"><path fill="none" stroke="#fe6a35" stroke-linecap="round" stroke-width="2" d="M 1 13 L 15 13" class="highcharts-graph" transform="translate(8 60)"/><path fill="#fe6a35" d="M 8 9 L 12 17 L 4 17 Z" class="highcharts-point" transform="translate(8 60)"/><text x="21" y="17" data-z-index="2" style="color:#333;cursor:pointer;font-size:.8em;text-decoration:none;fill:#333" transform="translate(8 60)">Operations &amp; Maintenance</text></g><g class="highcharts-legend-item highcharts-line-series highcharts-color-4 highcharts-series-4" data-z-index="1"><path fill="none" stroke="#6b8abc" stroke-linecap="round" stroke-width="2" d="M 1 13 L 15 13" class="highcharts-graph" transform="translate(8 79)"/><path fill="#6b8abc" d="M 4 9 L 12 9 L 8 17 Z" class="highcharts-point" transform="translate(8 79)"/><text x="21" y="17" data-z-index="2" style="color:#333;cursor:pointer;font-size:.8em;text-decoration:none;fill:#333" transform="translate(8 79)">Other</text></g></g></g><g aria-hidden="true" class="highcharts-axis-labels highcharts-xaxis-labels" data-z-index="7" text-anchor="middle"><text x="81.049" y="382" style="color:#333;cursor:default;font-size:.8em;fill:#333">2010</text><text x="335.134" y="382" style="color:#333;cursor:default;font-size:.8em;fill:#333">2020</text><text x="208.092" y="382" style="color:#333;cursor:default;font-size:.8em;fill:#333">2015</text></g><g aria-hidden="true" class="highcharts-axis-labels highcharts-yaxis-labels" data-z-index="7" text-anchor="end"><text x="63" y="360" style="color:#333;cursor:default;font-size:.8em;fill:#333">0</text><text x="63" y="287" style="color:#333;cursor:default;font-size:.8em;fill:#333">50k</text><text x="63" y="214" style="color:#333;cursor:default;font-size:.8em;fill:#333">100k</text><text x="63" y="141" style="color:#333;cursor:default;font-size:.8em;fill:#333">150k</text><text x="63" y="68" style="color:#333;cursor:default;font-size:.8em;fill:#333">200k</text></g></svg>